ISO-10303-21;
HEADER;
FILE_DESCRIPTION(('STEP AP214'),'1');
FILE_NAME('Rhino.stp','2026-06-05T14:48:14',('mchuyae2'),(' '),'Spatial InterOp 3D','CST ACIS InterOp Converter 2021',' ');
FILE_SCHEMA(('AUTOMOTIVE_DESIGN { 1 0 10303 214 1 1 1 1 }'));
ENDSEC;
DATA;
#1=MECHANICAL_DESIGN_GEOMETRIC_PRESENTATION_REPRESENTATION(' ',(#14,#15,#16,#17),#10);
#2=PRODUCT_DEFINITION_CONTEXT('',#18,'design');
#3=APPLICATION_PROTOCOL_DEFINITION('INTERNATIONAL STANDARD','automotive_design',1994,#18);
#4=PRODUCT_CATEGORY_RELATIONSHIP('NONE','NONE',#19,#20);
#5=SHAPE_DEFINITION_REPRESENTATION(#21,#22);
#6=SHAPE_DEFINITION_REPRESENTATION(#21,#23);
#7=SHAPE_DEFINITION_REPRESENTATION(#21,#24);
#8=SHAPE_DEFINITION_REPRESENTATION(#21,#25);
#9=SHAPE_DEFINITION_REPRESENTATION(#21,#26);
#10= (GEOMETRIC_REPRESENTATION_CONTEXT(3)GLOBAL_UNCERTAINTY_ASSIGNED_CONTEXT((#29))GLOBAL_UNIT_ASSIGNED_CONTEXT((#31,#32,#33))REPRESENTATION_CONTEXT('NONE','WORKSPACE'));
#14=STYLED_ITEM('',(#35),#36);
#15=STYLED_ITEM('',(#37),#38);
#16=STYLED_ITEM('',(#39),#40);
#17=STYLED_ITEM('',(#41),#42);
#18=APPLICATION_CONTEXT(' ');
#19=PRODUCT_CATEGORY('part','NONE');
#20=PRODUCT_RELATED_PRODUCT_CATEGORY('detail',' ',(#43));
#21=PRODUCT_DEFINITION_SHAPE('NONE','NONE',#44);
#22=MANIFOLD_SURFACE_SHAPE_REPRESENTATION('component1|WaveGuide',(#36,#45),#10);
#23=MANIFOLD_SURFACE_SHAPE_REPRESENTATION('component1|solid1',(#38,#46),#10);
#24=ADVANCED_BREP_SHAPE_REPRESENTATION('component1|solid2',(#40,#47),#10);
#25=ADVANCED_BREP_SHAPE_REPRESENTATION('component1|solid3',(#42,#48),#10);
#26=MANIFOLD_SURFACE_SHAPE_REPRESENTATION('Ports|port1',(#49,#50),#10);
#29=UNCERTAINTY_MEASURE_WITH_UNIT(LENGTH_MEASURE(1.0E-06),#31,'','');
#31= (CONVERSION_BASED_UNIT('MILLIMETRE',#53)LENGTH_UNIT()NAMED_UNIT(#56));
#32= (NAMED_UNIT(#58)PLANE_ANGLE_UNIT()SI_UNIT($,.RADIAN.));
#33= (NAMED_UNIT(#58)SOLID_ANGLE_UNIT()SI_UNIT($,.STERADIAN.));
#35=PRESENTATION_STYLE_ASSIGNMENT((#64));
#36=SHELL_BASED_SURFACE_MODEL('component1|WaveGuide',(#65));
#37=PRESENTATION_STYLE_ASSIGNMENT((#66));
#38=SHELL_BASED_SURFACE_MODEL('component1|solid1',(#67));
#39=PRESENTATION_STYLE_ASSIGNMENT((#68));
#40=MANIFOLD_SOLID_BREP('component1|solid2',#69);
#41=PRESENTATION_STYLE_ASSIGNMENT((#70));
#42=MANIFOLD_SOLID_BREP('component1|solid3',#71);
#43=PRODUCT('component1|WaveGuide','','PART--DESC',(#72));
#44=PRODUCT_DEFINITION('','NONE',#73,#2);
#45=AXIS2_PLACEMENT_3D('',#74,#75,#76);
#46=AXIS2_PLACEMENT_3D('',#77,#78,#79);
#47=AXIS2_PLACEMENT_3D('',#80,#81,#82);
#48=AXIS2_PLACEMENT_3D('',#83,#84,#85);
#49=SHELL_BASED_SURFACE_MODEL('Ports|port1',(#86));
#50=AXIS2_PLACEMENT_3D('',#87,#88,#89);
#53=LENGTH_MEASURE_WITH_UNIT(LENGTH_MEASURE(1.0),#90);
#56=DIMENSIONAL_EXPONENTS(1.0,0.0,0.0,0.0,0.0,0.0,0.0);
#58=DIMENSIONAL_EXPONENTS(0.0,0.0,0.0,0.0,0.0,0.0,0.0);
#64=SURFACE_STYLE_USAGE(.BOTH.,#91);
#65=CLOSED_SHELL('',(#92,#93,#94,#95,#96,#97,#98,#99));
#66=SURFACE_STYLE_USAGE(.BOTH.,#100);
#67=CLOSED_SHELL('',(#101));
#68=SURFACE_STYLE_USAGE(.BOTH.,#102);
#69=CLOSED_SHELL('',(#103,#104,#105,#106));
#70=SURFACE_STYLE_USAGE(.BOTH.,#107);
#71=CLOSED_SHELL('',(#108,#109,#110,#111,#112,#113));
#72=PRODUCT_CONTEXT('',#18,'mechanical');
#73=PRODUCT_DEFINITION_FORMATION_WITH_SPECIFIED_SOURCE(' ','NONE',#43,.NOT_KNOWN.);
#74=CARTESIAN_POINT('',(0.0,0.0,0.0));
#75=DIRECTION('',(0.0,0.0,1.0));
#76=DIRECTION('',(1.0,0.0,0.0));
#77=CARTESIAN_POINT('',(0.0,0.0,0.0));
#78=DIRECTION('',(0.0,0.0,1.0));
#79=DIRECTION('',(1.0,0.0,0.0));
#80=CARTESIAN_POINT('',(0.0,0.0,0.0));
#81=DIRECTION('',(0.0,0.0,1.0));
#82=DIRECTION('',(1.0,0.0,0.0));
#83=CARTESIAN_POINT('',(0.0,0.0,0.0));
#84=DIRECTION('',(0.0,0.0,1.0));
#85=DIRECTION('',(1.0,0.0,0.0));
#86=CLOSED_SHELL('',(#114));
#87=CARTESIAN_POINT('',(0.0,0.0,0.0));
#88=DIRECTION('',(0.0,0.0,1.0));
#89=DIRECTION('',(1.0,0.0,0.0));
#90= (NAMED_UNIT(#56)LENGTH_UNIT()SI_UNIT(.MILLI.,.METRE.));
#91=SURFACE_SIDE_STYLE('',(#116));
#92=FACE_SURFACE('',(#117),#118,.F.);
#93=FACE_SURFACE('',(#119),#120,.F.);
#94=FACE_SURFACE('',(#121),#122,.F.);
#95=FACE_SURFACE('',(#123,#124),#125,.F.);
#96=FACE_SURFACE('',(#126),#127,.T.);
#97=FACE_SURFACE('',(#128),#129,.T.);
#98=FACE_SURFACE('',(#130),#131,.T.);
#99=FACE_SURFACE('',(#132),#133,.T.);
#100=SURFACE_SIDE_STYLE('',(#134));
#101=FACE_SURFACE('',(#135),#136,.T.);
#102=SURFACE_SIDE_STYLE('',(#137));
#103=ADVANCED_FACE('',(#138),#139,.T.);
#104=ADVANCED_FACE('',(#140),#141,.T.);
#105=ADVANCED_FACE('',(#142),#143,.T.);
#106=ADVANCED_FACE('',(#144),#145,.T.);
#107=SURFACE_SIDE_STYLE('',(#146));
#108=ADVANCED_FACE('',(#147),#148,.F.);
#109=ADVANCED_FACE('',(#149),#150,.T.);
#110=ADVANCED_FACE('',(#151,#152),#153,.T.);
#111=ADVANCED_FACE('',(#154),#155,.T.);
#112=ADVANCED_FACE('',(#156,#157),#158,.T.);
#113=ADVANCED_FACE('',(#159),#160,.F.);
#114=FACE_SURFACE('',(#161),#162,.T.);
#116=SURFACE_STYLE_FILL_AREA(#163);
#117=FACE_BOUND('',#164,.T.);
#118=PLANE('',#165);
#119=FACE_BOUND('',#166,.T.);
#120=PLANE('',#167);
#121=FACE_BOUND('',#168,.T.);
#122=PLANE('',#169);
#123=FACE_BOUND('',#170,.T.);
#124=FACE_BOUND('',#171,.T.);
#125=PLANE('',#172);
#126=FACE_BOUND('',#173,.T.);
#127=PLANE('',#174);
#128=FACE_BOUND('',#175,.T.);
#129=PLANE('',#176);
#130=FACE_BOUND('',#177,.T.);
#131=PLANE('',#178);
#132=FACE_BOUND('',#179,.T.);
#133=PLANE('',#180);
#134=SURFACE_STYLE_FILL_AREA(#181);
#135=FACE_BOUND('',#182,.T.);
#136=PLANE('',#183);
#137=SURFACE_STYLE_FILL_AREA(#184);
#138=FACE_OUTER_BOUND('',#185,.T.);
#139=CYLINDRICAL_SURFACE('',#186,24.0);
#140=FACE_OUTER_BOUND('',#187,.T.);
#141=CYLINDRICAL_SURFACE('',#188,24.0);
#142=FACE_OUTER_BOUND('',#189,.T.);
#143=PLANE('',#190);
#144=FACE_OUTER_BOUND('',#191,.T.);
#145=PLANE('',#192);
#146=SURFACE_STYLE_FILL_AREA(#193);
#147=FACE_OUTER_BOUND('',#194,.T.);
#148=CYLINDRICAL_SURFACE('',#195,55.0);
#149=FACE_OUTER_BOUND('',#196,.T.);
#150=CYLINDRICAL_SURFACE('',#197,72.0);
#151=FACE_OUTER_BOUND('',#198,.T.);
#152=FACE_BOUND('',#199,.T.);
#153=PLANE('',#200);
#154=FACE_OUTER_BOUND('',#201,.T.);
#155=CYLINDRICAL_SURFACE('',#202,72.0);
#156=FACE_BOUND('',#203,.T.);
#157=FACE_OUTER_BOUND('',#204,.T.);
#158=PLANE('',#205);
#159=FACE_OUTER_BOUND('',#206,.T.);
#160=CYLINDRICAL_SURFACE('',#207,55.0);
#161=FACE_BOUND('',#208,.T.);
#162=PLANE('',#209);
#163=FILL_AREA_STYLE('',(#210));
#164=EDGE_LOOP('',(#211,#212,#213,#214,#215,#216,#217,#218));
#165=AXIS2_PLACEMENT_3D('',#219,#220,#221);
#166=EDGE_LOOP('',(#222,#223,#224,#225,#226,#227,#228,#229));
#167=AXIS2_PLACEMENT_3D('',#230,#231,#232);
#168=EDGE_LOOP('',(#233,#234,#235,#236,#237,#238,#239,#240));
#169=AXIS2_PLACEMENT_3D('',#241,#242,#243);
#170=EDGE_LOOP('',(#244,#245));
#171=EDGE_LOOP('',(#246,#247,#248,#249,#250,#251,#252,#253));
#172=AXIS2_PLACEMENT_3D('',#254,#255,#256);
#173=EDGE_LOOP('',(#257,#258,#259,#260));
#174=AXIS2_PLACEMENT_3D('',#261,#262,#263);
#175=EDGE_LOOP('',(#264,#265,#266,#267));
#176=AXIS2_PLACEMENT_3D('',#268,#269,#270);
#177=EDGE_LOOP('',(#271,#272,#273,#274));
#178=AXIS2_PLACEMENT_3D('',#275,#276,#277);
#179=EDGE_LOOP('',(#278,#279,#280,#281));
#180=AXIS2_PLACEMENT_3D('',#282,#283,#284);
#181=FILL_AREA_STYLE('',(#285));
#182=EDGE_LOOP('',(#286,#287,#288,#289));
#183=AXIS2_PLACEMENT_3D('',#290,#291,#292);
#184=FILL_AREA_STYLE('',(#293));
#185=EDGE_LOOP('',(#294,#295,#296,#297));
#186=AXIS2_PLACEMENT_3D('',#298,#299,#300);
#187=EDGE_LOOP('',(#301,#302,#303,#304));
#188=AXIS2_PLACEMENT_3D('',#305,#306,#307);
#189=EDGE_LOOP('',(#308,#309));
#190=AXIS2_PLACEMENT_3D('',#310,#311,#312);
#191=EDGE_LOOP('',(#313,#314));
#192=AXIS2_PLACEMENT_3D('',#315,#316,#317);
#193=FILL_AREA_STYLE('',(#318));
#194=EDGE_LOOP('',(#319,#320,#321,#322));
#195=AXIS2_PLACEMENT_3D('',#323,#324,#325);
#196=EDGE_LOOP('',(#326,#327,#328,#329));
#197=AXIS2_PLACEMENT_3D('',#330,#331,#332);
#198=EDGE_LOOP('',(#333,#334));
#199=EDGE_LOOP('',(#335,#336));
#200=AXIS2_PLACEMENT_3D('',#337,#338,#339);
#201=EDGE_LOOP('',(#340,#341,#342,#343));
#202=AXIS2_PLACEMENT_3D('',#344,#345,#346);
#203=EDGE_LOOP('',(#347,#348));
#204=EDGE_LOOP('',(#349,#350));
#205=AXIS2_PLACEMENT_3D('',#351,#352,#353);
#206=EDGE_LOOP('',(#354,#355,#356,#357));
#207=AXIS2_PLACEMENT_3D('',#358,#359,#360);
#208=EDGE_LOOP('',(#361,#362,#363,#364));
#209=AXIS2_PLACEMENT_3D('',#365,#366,#367);
#210=FILL_AREA_STYLE_COLOUR('',#368);
#211=ORIENTED_EDGE('',*,*,#369,.T.);
#212=ORIENTED_EDGE('',*,*,#370,.T.);
#213=ORIENTED_EDGE('',*,*,#371,.T.);
#214=ORIENTED_EDGE('',*,*,#372,.T.);
#215=ORIENTED_EDGE('',*,*,#373,.T.);
#216=ORIENTED_EDGE('',*,*,#374,.T.);
#217=ORIENTED_EDGE('',*,*,#375,.T.);
#218=ORIENTED_EDGE('',*,*,#376,.T.);
#219=CARTESIAN_POINT('',(1600.0,0.0,1.5));
#220=DIRECTION('',(-1.0,0.0,0.0));
#221=DIRECTION('',(0.0,0.0,1.0));
#222=ORIENTED_EDGE('',*,*,#371,.F.);
#223=ORIENTED_EDGE('',*,*,#377,.T.);
#224=ORIENTED_EDGE('',*,*,#378,.T.);
#225=ORIENTED_EDGE('',*,*,#379,.T.);
#226=ORIENTED_EDGE('',*,*,#380,.T.);
#227=ORIENTED_EDGE('',*,*,#381,.T.);
#228=ORIENTED_EDGE('',*,*,#373,.F.);
#229=ORIENTED_EDGE('',*,*,#372,.F.);
#230=CARTESIAN_POINT('',(0.0,1000.0,1.5));
#231=DIRECTION('',(0.0,-1.0,0.0));
#232=DIRECTION('',(0.0,0.0,-1.0));
#233=ORIENTED_EDGE('',*,*,#378,.F.);
#234=ORIENTED_EDGE('',*,*,#382,.T.);
#235=ORIENTED_EDGE('',*,*,#383,.T.);
#236=ORIENTED_EDGE('',*,*,#384,.T.);
#237=ORIENTED_EDGE('',*,*,#385,.T.);
#238=ORIENTED_EDGE('',*,*,#386,.T.);
#239=ORIENTED_EDGE('',*,*,#380,.F.);
#240=ORIENTED_EDGE('',*,*,#379,.F.);
#241=CARTESIAN_POINT('',(-1600.0,0.0,1.5));
#242=DIRECTION('',(1.0,0.0,0.0));
#243=DIRECTION('',(0.0,0.0,-1.0));
#244=ORIENTED_EDGE('',*,*,#387,.T.);
#245=ORIENTED_EDGE('',*,*,#388,.T.);
#246=ORIENTED_EDGE('',*,*,#383,.F.);
#247=ORIENTED_EDGE('',*,*,#389,.T.);
#248=ORIENTED_EDGE('',*,*,#369,.F.);
#249=ORIENTED_EDGE('',*,*,#376,.F.);
#250=ORIENTED_EDGE('',*,*,#375,.F.);
#251=ORIENTED_EDGE('',*,*,#390,.T.);
#252=ORIENTED_EDGE('',*,*,#385,.F.);
#253=ORIENTED_EDGE('',*,*,#384,.F.);
#254=CARTESIAN_POINT('',(0.0,-1000.0,1.5));
#255=DIRECTION('',(0.0,1.0,0.0));
#256=DIRECTION('',(0.0,0.0,1.0));
#257=ORIENTED_EDGE('',*,*,#390,.F.);
#258=ORIENTED_EDGE('',*,*,#391,.T.);
#259=ORIENTED_EDGE('',*,*,#392,.T.);
#260=ORIENTED_EDGE('',*,*,#393,.T.);
#261=CARTESIAN_POINT('',(0.0,-2000.0,5151.5));
#262=DIRECTION('',(0.0,-0.906608503477101,-0.421972773319572));
#263=DIRECTION('',(0.0,0.421972773319572,-0.906608503477101));
#264=ORIENTED_EDGE('',*,*,#386,.F.);
#265=ORIENTED_EDGE('',*,*,#393,.F.);
#266=ORIENTED_EDGE('',*,*,#394,.T.);
#267=ORIENTED_EDGE('',*,*,#395,.T.);
#268=CARTESIAN_POINT('',(-2625.0,0.0,5151.5));
#269=DIRECTION('',(-0.902549685338515,0.0,-0.43058572374772));
#270=DIRECTION('',(-0.43058572374772,0.0,0.902549685338515));
#271=ORIENTED_EDGE('',*,*,#381,.F.);
#272=ORIENTED_EDGE('',*,*,#395,.F.);
#273=ORIENTED_EDGE('',*,*,#396,.T.);
#274=ORIENTED_EDGE('',*,*,#397,.T.);
#275=CARTESIAN_POINT('',(0.0,2000.0,5151.5));
#276=DIRECTION('',(0.0,0.906608503477101,-0.421972773319572));
#277=DIRECTION('',(-0.0,0.421972773319572,0.906608503477101));
#278=ORIENTED_EDGE('',*,*,#374,.F.);
#279=ORIENTED_EDGE('',*,*,#397,.F.);
#280=ORIENTED_EDGE('',*,*,#398,.T.);
#281=ORIENTED_EDGE('',*,*,#391,.F.);
#282=CARTESIAN_POINT('',(2625.0,0.0,5151.5));
#283=DIRECTION('',(0.902549685338515,0.0,-0.43058572374772));
#284=DIRECTION('',(-0.43058572374772,0.0,-0.902549685338515));
#285=FILL_AREA_STYLE_COLOUR('',#399);
#286=ORIENTED_EDGE('',*,*,#400,.T.);
#287=ORIENTED_EDGE('',*,*,#401,.T.);
#288=ORIENTED_EDGE('',*,*,#402,.T.);
#289=ORIENTED_EDGE('',*,*,#403,.T.);
#290=CARTESIAN_POINT('',(1600.0,-1000.0,0.0));
#291=DIRECTION('',(0.0,-0.0,1.0));
#292=DIRECTION('',(1.0,0.0,-0.0));
#293=FILL_AREA_STYLE_COLOUR('',#404);
#294=ORIENTED_EDGE('',*,*,#405,.F.);
#295=ORIENTED_EDGE('',*,*,#406,.F.);
#296=ORIENTED_EDGE('',*,*,#407,.F.);
#297=ORIENTED_EDGE('',*,*,#408,.F.);
#298=CARTESIAN_POINT('',(0.0,-1000.0,1300.0));
#299=DIRECTION('',(-0.0,1.0,0.0));
#300=DIRECTION('',(1.0,0.0,0.0));
#301=ORIENTED_EDGE('',*,*,#405,.T.);
#302=ORIENTED_EDGE('',*,*,#409,.F.);
#303=ORIENTED_EDGE('',*,*,#407,.T.);
#304=ORIENTED_EDGE('',*,*,#410,.F.);
#305=CARTESIAN_POINT('',(0.0,-1000.0,1300.0));
#306=DIRECTION('',(-0.0,1.0,0.0));
#307=DIRECTION('',(1.0,0.0,0.0));
#308=ORIENTED_EDGE('',*,*,#410,.T.);
#309=ORIENTED_EDGE('',*,*,#406,.T.);
#310=CARTESIAN_POINT('',(0.0,-2000.0,1300.0));
#311=DIRECTION('',(0.0,-1.0,0.0));
#312=DIRECTION('',(-1.0,0.0,0.0));
#313=ORIENTED_EDGE('',*,*,#408,.T.);
#314=ORIENTED_EDGE('',*,*,#409,.T.);
#315=CARTESIAN_POINT('',(0.0,0.0,1300.0));
#316=DIRECTION('',(-0.0,1.0,0.0));
#317=DIRECTION('',(1.0,0.0,0.0));
#318=FILL_AREA_STYLE_COLOUR('',#411);
#319=ORIENTED_EDGE('',*,*,#412,.F.);
#320=ORIENTED_EDGE('',*,*,#413,.F.);
#321=ORIENTED_EDGE('',*,*,#414,.F.);
#322=ORIENTED_EDGE('',*,*,#415,.T.);
#323=CARTESIAN_POINT('',(0.0,-1499.0,1300.0));
#324=DIRECTION('',(0.0,1.0,0.0));
#325=DIRECTION('',(0.0,0.0,1.0));
#326=ORIENTED_EDGE('',*,*,#416,.F.);
#327=ORIENTED_EDGE('',*,*,#417,.T.);
#328=ORIENTED_EDGE('',*,*,#418,.F.);
#329=ORIENTED_EDGE('',*,*,#419,.F.);
#330=CARTESIAN_POINT('',(0.0,-1499.0,1300.0));
#331=DIRECTION('',(0.0,1.0,0.0));
#332=DIRECTION('',(0.0,0.0,1.0));
#333=ORIENTED_EDGE('',*,*,#417,.F.);
#334=ORIENTED_EDGE('',*,*,#420,.F.);
#335=ORIENTED_EDGE('',*,*,#421,.T.);
#336=ORIENTED_EDGE('',*,*,#413,.T.);
#337=CARTESIAN_POINT('',(0.0,-2000.0,1363.5));
#338=DIRECTION('',(0.0,-1.0,-0.0));
#339=DIRECTION('',(-0.0,0.0,-1.0));
#340=ORIENTED_EDGE('',*,*,#416,.T.);
#341=ORIENTED_EDGE('',*,*,#422,.F.);
#342=ORIENTED_EDGE('',*,*,#418,.T.);
#343=ORIENTED_EDGE('',*,*,#420,.T.);
#344=CARTESIAN_POINT('',(0.0,-1499.0,1300.0));
#345=DIRECTION('',(0.0,1.0,0.0));
#346=DIRECTION('',(0.0,0.0,1.0));
#347=ORIENTED_EDGE('',*,*,#423,.F.);
#348=ORIENTED_EDGE('',*,*,#415,.F.);
#349=ORIENTED_EDGE('',*,*,#419,.T.);
#350=ORIENTED_EDGE('',*,*,#422,.T.);
#351=CARTESIAN_POINT('',(0.0,-998.0,1363.5));
#352=DIRECTION('',(0.0,1.0,0.0));
#353=DIRECTION('',(0.0,0.0,1.0));
#354=ORIENTED_EDGE('',*,*,#412,.T.);
#355=ORIENTED_EDGE('',*,*,#423,.T.);
#356=ORIENTED_EDGE('',*,*,#414,.T.);
#357=ORIENTED_EDGE('',*,*,#421,.F.);
#358=CARTESIAN_POINT('',(0.0,-1499.0,1300.0));
#359=DIRECTION('',(0.0,1.0,0.0));
#360=DIRECTION('',(0.0,0.0,1.0));
#361=ORIENTED_EDGE('',*,*,#424,.T.);
#362=ORIENTED_EDGE('',*,*,#425,.T.);
#363=ORIENTED_EDGE('',*,*,#426,.T.);
#364=ORIENTED_EDGE('',*,*,#427,.T.);
#365=CARTESIAN_POINT('',(-72.0,-2000.0,1228.0));
#366=DIRECTION('',(0.0,1.0,0.0));
#367=DIRECTION('',(0.0,0.0,1.0));
#368=COLOUR_RGB('',0.800000011920929,0.800000011920929,0.800000011920929);
#369=EDGE_CURVE('',#428,#429,#430,.T.);
#370=EDGE_CURVE('',#429,#431,#432,.F.);
#371=EDGE_CURVE('',#431,#433,#434,.F.);
#372=EDGE_CURVE('',#433,#435,#436,.T.);
#373=EDGE_CURVE('',#435,#437,#438,.F.);
#374=EDGE_CURVE('',#437,#439,#440,.F.);
#375=EDGE_CURVE('',#439,#441,#442,.T.);
#376=EDGE_CURVE('',#441,#428,#443,.F.);
#377=EDGE_CURVE('',#431,#444,#445,.F.);
#378=EDGE_CURVE('',#444,#446,#447,.F.);
#379=EDGE_CURVE('',#446,#448,#449,.T.);
#380=EDGE_CURVE('',#448,#450,#451,.F.);
#381=EDGE_CURVE('',#450,#437,#452,.F.);
#382=EDGE_CURVE('',#444,#453,#454,.F.);
#383=EDGE_CURVE('',#453,#455,#456,.F.);
#384=EDGE_CURVE('',#455,#457,#458,.T.);
#385=EDGE_CURVE('',#457,#459,#460,.F.);
#386=EDGE_CURVE('',#459,#450,#461,.F.);
#387=EDGE_CURVE('',#462,#463,#464,.T.);
#388=EDGE_CURVE('',#463,#462,#465,.T.);
#389=EDGE_CURVE('',#453,#429,#466,.F.);
#390=EDGE_CURVE('',#439,#459,#467,.F.);
#391=EDGE_CURVE('',#439,#468,#469,.T.);
#392=EDGE_CURVE('',#468,#470,#471,.F.);
#393=EDGE_CURVE('',#470,#459,#472,.F.);
#394=EDGE_CURVE('',#470,#473,#474,.F.);
#395=EDGE_CURVE('',#473,#450,#475,.F.);
#396=EDGE_CURVE('',#473,#476,#477,.F.);
#397=EDGE_CURVE('',#476,#437,#478,.F.);
#398=EDGE_CURVE('',#476,#468,#479,.F.);
#399=COLOUR_RGB('',0.800000011920929,0.800000011920929,0.800000011920929);
#400=EDGE_CURVE('',#480,#481,#482,.T.);
#401=EDGE_CURVE('',#481,#483,#484,.T.);
#402=EDGE_CURVE('',#483,#485,#486,.T.);
#403=EDGE_CURVE('',#485,#480,#487,.T.);
#404=COLOUR_RGB('',0.800000011920929,0.800000011920929,0.800000011920929);
#405=EDGE_CURVE('',#488,#489,#490,.T.);
#406=EDGE_CURVE('',#491,#488,#492,.T.);
#407=EDGE_CURVE('',#493,#491,#494,.T.);
#408=EDGE_CURVE('',#489,#493,#495,.T.);
#409=EDGE_CURVE('',#493,#489,#496,.T.);
#410=EDGE_CURVE('',#488,#491,#497,.T.);
#411=COLOUR_RGB('',0.800000011920929,0.800000011920929,0.800000011920929);
#412=EDGE_CURVE('',#498,#499,#500,.T.);
#413=EDGE_CURVE('',#501,#498,#502,.T.);
#414=EDGE_CURVE('',#503,#501,#504,.T.);
#415=EDGE_CURVE('',#503,#499,#505,.T.);
#416=EDGE_CURVE('',#506,#507,#508,.T.);
#417=EDGE_CURVE('',#506,#509,#510,.T.);
#418=EDGE_CURVE('',#511,#509,#512,.T.);
#419=EDGE_CURVE('',#507,#511,#513,.T.);
#420=EDGE_CURVE('',#509,#506,#514,.T.);
#421=EDGE_CURVE('',#498,#501,#515,.T.);
#422=EDGE_CURVE('',#511,#507,#516,.T.);
#423=EDGE_CURVE('',#499,#503,#517,.T.);
#424=EDGE_CURVE('',#518,#519,#520,.T.);
#425=EDGE_CURVE('',#519,#521,#522,.T.);
#426=EDGE_CURVE('',#521,#523,#524,.T.);
#427=EDGE_CURVE('',#523,#518,#525,.T.);
#428=VERTEX_POINT('',#526);
#429=VERTEX_POINT('',#527);
#430=LINE('',#528,#529);
#431=VERTEX_POINT('',#530);
#432=LINE('',#531,#532);
#433=VERTEX_POINT('',#533);
#434=LINE('',#534,#535);
#435=VERTEX_POINT('',#536);
#436=B_SPLINE_CURVE_WITH_KNOTS('',1,(#537,#538),.UNSPECIFIED.,.F.,.F.,(2,2),(0.0,1.0),.UNSPECIFIED.);
#437=VERTEX_POINT('',#539);
#438=LINE('',#540,#541);
#439=VERTEX_POINT('',#542);
#440=LINE('',#543,#544);
#441=VERTEX_POINT('',#545);
#442=LINE('',#546,#547);
#443=B_SPLINE_CURVE_WITH_KNOTS('',1,(#548,#549),.UNSPECIFIED.,.F.,.F.,(2,2),(0.0,1.0),.UNSPECIFIED.);
#444=VERTEX_POINT('',#550);
#445=LINE('',#551,#552);
#446=VERTEX_POINT('',#553);
#447=LINE('',#554,#555);
#448=VERTEX_POINT('',#556);
#449=B_SPLINE_CURVE_WITH_KNOTS('',1,(#557,#558),.UNSPECIFIED.,.F.,.F.,(2,2),(0.0,1.0),.UNSPECIFIED.);
#450=VERTEX_POINT('',#559);
#451=LINE('',#560,#561);
#452=LINE('',#562,#563);
#453=VERTEX_POINT('',#564);
#454=LINE('',#565,#566);
#455=VERTEX_POINT('',#567);
#456=LINE('',#568,#569);
#457=VERTEX_POINT('',#570);
#458=B_SPLINE_CURVE_WITH_KNOTS('',1,(#571,#572),.UNSPECIFIED.,.F.,.F.,(2,2),(0.0,1.0),.UNSPECIFIED.);
#459=VERTEX_POINT('',#573);
#460=LINE('',#574,#575);
#461=LINE('',#576,#577);
#462=VERTEX_POINT('',#578);
#463=VERTEX_POINT('',#579);
#464=CIRCLE('',#580,72.0);
#465=CIRCLE('',#581,72.0);
#466=LINE('',#582,#583);
#467=LINE('',#584,#585);
#468=VERTEX_POINT('',#586);
#469=B_SPLINE_CURVE_WITH_KNOTS('',1,(#587,#588),.UNSPECIFIED.,.F.,.F.,(2,2),(0.0,1.0),.UNSPECIFIED.);
#470=VERTEX_POINT('',#589);
#471=LINE('',#590,#591);
#472=B_SPLINE_CURVE_WITH_KNOTS('',1,(#592,#593),.UNSPECIFIED.,.F.,.F.,(2,2),(0.0,1.0),.UNSPECIFIED.);
#473=VERTEX_POINT('',#594);
#474=LINE('',#595,#596);
#475=B_SPLINE_CURVE_WITH_KNOTS('',1,(#597,#598),.UNSPECIFIED.,.F.,.F.,(2,2),(0.0,1.0),.UNSPECIFIED.);
#476=VERTEX_POINT('',#599);
#477=LINE('',#600,#601);
#478=B_SPLINE_CURVE_WITH_KNOTS('',1,(#602,#603),.UNSPECIFIED.,.F.,.F.,(2,2),(0.0,1.0),.UNSPECIFIED.);
#479=LINE('',#604,#605);
#480=VERTEX_POINT('',#606);
#481=VERTEX_POINT('',#607);
#482=LINE('',#608,#609);
#483=VERTEX_POINT('',#610);
#484=LINE('',#611,#612);
#485=VERTEX_POINT('',#613);
#486=LINE('',#614,#615);
#487=LINE('',#616,#617);
#488=VERTEX_POINT('',#618);
#489=VERTEX_POINT('',#619);
#490=LINE('',#620,#621);
#491=VERTEX_POINT('',#622);
#492=CIRCLE('',#623,24.0);
#493=VERTEX_POINT('',#624);
#494=LINE('',#625,#626);
#495=CIRCLE('',#627,24.0);
#496=CIRCLE('',#628,24.0);
#497=CIRCLE('',#629,24.0);
#498=VERTEX_POINT('',#630);
#499=VERTEX_POINT('',#631);
#500=LINE('',#632,#633);
#501=VERTEX_POINT('',#634);
#502=CIRCLE('',#635,55.0);
#503=VERTEX_POINT('',#636);
#504=LINE('',#637,#638);
#505=CIRCLE('',#639,55.0);
#506=VERTEX_POINT('',#640);
#507=VERTEX_POINT('',#641);
#508=LINE('',#642,#643);
#509=VERTEX_POINT('',#644);
#510=CIRCLE('',#645,72.0);
#511=VERTEX_POINT('',#646);
#512=LINE('',#647,#648);
#513=CIRCLE('',#649,72.0);
#514=CIRCLE('',#650,72.0);
#515=CIRCLE('',#651,55.0);
#516=CIRCLE('',#652,72.0);
#517=CIRCLE('',#653,55.0);
#518=VERTEX_POINT('',#654);
#519=VERTEX_POINT('',#655);
#520=LINE('',#656,#657);
#521=VERTEX_POINT('',#658);
#522=LINE('',#659,#660);
#523=VERTEX_POINT('',#661);
#524=LINE('',#662,#663);
#525=LINE('',#664,#665);
#526=CARTESIAN_POINT('',(1600.0,-1000.0,3.0));
#527=CARTESIAN_POINT('',(1600.0,-1000.0,0.0));
#528=CARTESIAN_POINT('',(1600.0,-1000.0,1.5));
#529=VECTOR('',#666,1.0);
#530=CARTESIAN_POINT('',(1600.0,1000.0,0.0));
#531=CARTESIAN_POINT('',(1600.0,0.0,0.0));
#532=VECTOR('',#667,1.0);
#533=CARTESIAN_POINT('',(1600.0,1000.0,3.0));
#534=CARTESIAN_POINT('',(1600.0,1000.0,1.5));
#535=VECTOR('',#668,1.0);
#536=CARTESIAN_POINT('',(1600.0,1000.0,3000.0));
#537=CARTESIAN_POINT('',(1600.0,1000.0,3.0));
#538=CARTESIAN_POINT('',(1600.0,1000.0,3003.0));
#539=CARTESIAN_POINT('',(1600.0,1000.0,3003.0));
#540=CARTESIAN_POINT('',(1600.0,1000.0,3001.5));
#541=VECTOR('',#669,1.0);
#542=CARTESIAN_POINT('',(1600.0,-1000.0,3003.0));
#543=CARTESIAN_POINT('',(1600.0,0.0,3003.0));
#544=VECTOR('',#670,1.0);
#545=CARTESIAN_POINT('',(1600.0,-1000.0,3000.0));
#546=CARTESIAN_POINT('',(1600.0,-1000.0,3001.5));
#547=VECTOR('',#671,1.0);
#548=CARTESIAN_POINT('',(1600.0,-1000.0,3.0));
#549=CARTESIAN_POINT('',(1600.0,-1000.0,3003.0));
#550=CARTESIAN_POINT('',(-1600.0,1000.0,0.0));
#551=CARTESIAN_POINT('',(0.0,1000.0,0.0));
#552=VECTOR('',#672,1.0);
#553=CARTESIAN_POINT('',(-1600.0,1000.0,3.0));
#554=CARTESIAN_POINT('',(-1600.0,1000.0,1.5));
#555=VECTOR('',#673,1.0);
#556=CARTESIAN_POINT('',(-1600.0,1000.0,3000.0));
#557=CARTESIAN_POINT('',(-1600.0,1000.0,3.0));
#558=CARTESIAN_POINT('',(-1600.0,1000.0,3003.0));
#559=CARTESIAN_POINT('',(-1600.0,1000.0,3003.0));
#560=CARTESIAN_POINT('',(-1600.0,1000.0,3001.5));
#561=VECTOR('',#674,1.0);
#562=CARTESIAN_POINT('',(0.0,1000.0,3003.0));
#563=VECTOR('',#675,1.0);
#564=CARTESIAN_POINT('',(-1600.0,-1000.0,0.0));
#565=CARTESIAN_POINT('',(-1600.0,0.0,0.0));
#566=VECTOR('',#676,1.0);
#567=CARTESIAN_POINT('',(-1600.0,-1000.0,3.0));
#568=CARTESIAN_POINT('',(-1600.0,-1000.0,1.5));
#569=VECTOR('',#677,1.0);
#570=CARTESIAN_POINT('',(-1600.0,-1000.0,3000.0));
#571=CARTESIAN_POINT('',(-1600.0,-1000.0,3.0));
#572=CARTESIAN_POINT('',(-1600.0,-1000.0,3003.0));
#573=CARTESIAN_POINT('',(-1600.0,-1000.0,3003.0));
#574=CARTESIAN_POINT('',(-1600.0,-1000.0,3001.5));
#575=VECTOR('',#678,1.0);
#576=CARTESIAN_POINT('',(-1600.0,0.0,3003.0));
#577=VECTOR('',#679,1.0);
#578=CARTESIAN_POINT('',(-8.81745695386094E-15,-1000.0,1228.0));
#579=CARTESIAN_POINT('',(0.0,-1000.0,1372.0));
#580=AXIS2_PLACEMENT_3D('',#680,#681,#682);
#581=AXIS2_PLACEMENT_3D('',#683,#684,#685);
#582=CARTESIAN_POINT('',(0.0,-1000.0,0.0));
#583=VECTOR('',#686,1.0);
#584=CARTESIAN_POINT('',(0.0,-1000.0,3003.0));
#585=VECTOR('',#687,1.0);
#586=CARTESIAN_POINT('',(3650.0,-3000.0,7300.0));
#587=CARTESIAN_POINT('',(1600.0,-1000.0,3003.0));
#588=CARTESIAN_POINT('',(3650.0,-3000.0,7300.0));
#589=CARTESIAN_POINT('',(-3650.0,-3000.0,7300.0));
#590=CARTESIAN_POINT('',(-3650.0,-3000.0,7300.0));
#591=VECTOR('',#688,1.0);
#592=CARTESIAN_POINT('',(-1600.0,-1000.0,3003.0));
#593=CARTESIAN_POINT('',(-3650.0,-3000.0,7300.0));
#594=CARTESIAN_POINT('',(-3650.0,3000.0,7300.0));
#595=CARTESIAN_POINT('',(-3650.0,3000.0,7300.0));
#596=VECTOR('',#689,1.0);
#597=CARTESIAN_POINT('',(-1600.0,1000.0,3003.0));
#598=CARTESIAN_POINT('',(-3650.0,3000.0,7300.0));
#599=CARTESIAN_POINT('',(3650.0,3000.0,7300.0));
#600=CARTESIAN_POINT('',(3650.0,3000.0,7300.0));
#601=VECTOR('',#690,1.0);
#602=CARTESIAN_POINT('',(1600.0,1000.0,3003.0));
#603=CARTESIAN_POINT('',(3650.0,3000.0,7300.0));
#604=CARTESIAN_POINT('',(3650.0,-3000.0,7300.0));
#605=VECTOR('',#691,1.0);
#606=CARTESIAN_POINT('',(1600.0,-1000.0,0.0));
#607=CARTESIAN_POINT('',(1600.0,1000.0,0.0));
#608=CARTESIAN_POINT('',(1600.0,-1000.0,0.0));
#609=VECTOR('',#692,1.0);
#610=CARTESIAN_POINT('',(-1600.0,1000.0,0.0));
#611=CARTESIAN_POINT('',(1600.0,1000.0,0.0));
#612=VECTOR('',#693,1.0);
#613=CARTESIAN_POINT('',(-1600.0,-1000.0,0.0));
#614=CARTESIAN_POINT('',(-1600.0,1000.0,0.0));
#615=VECTOR('',#694,1.0);
#616=CARTESIAN_POINT('',(-1600.0,-1000.0,0.0));
#617=VECTOR('',#695,1.0);
#618=CARTESIAN_POINT('',(24.0,-2000.0,1300.0));
#619=CARTESIAN_POINT('',(24.0,0.0,1300.0));
#620=CARTESIAN_POINT('',(24.0,-1000.0,1300.0));
#621=VECTOR('',#696,1.0);
#622=CARTESIAN_POINT('',(-24.0,-2000.0,1300.0));
#623=AXIS2_PLACEMENT_3D('',#697,#698,#699);
#624=CARTESIAN_POINT('',(-24.0,0.0,1300.0));
#625=CARTESIAN_POINT('',(-24.0,-1000.0,1300.0));
#626=VECTOR('',#700,1.0);
#627=AXIS2_PLACEMENT_3D('',#701,#702,#703);
#628=AXIS2_PLACEMENT_3D('',#704,#705,#706);
#629=AXIS2_PLACEMENT_3D('',#707,#708,#709);
#630=CARTESIAN_POINT('',(0.0,-2000.0,1355.0));
#631=CARTESIAN_POINT('',(0.0,-998.0,1355.0));
#632=CARTESIAN_POINT('',(-6.73555739531044E-15,-1499.0,1355.0));
#633=VECTOR('',#710,1.0);
#634=CARTESIAN_POINT('',(6.73555739531044E-15,-2000.0,1245.0));
#635=AXIS2_PLACEMENT_3D('',#711,#712,#713);
#636=CARTESIAN_POINT('',(6.73555739531044E-15,-998.0,1245.0));
#637=CARTESIAN_POINT('',(6.73555739531044E-15,-1499.0,1245.0));
#638=VECTOR('',#714,1.0);
#639=AXIS2_PLACEMENT_3D('',#715,#716,#717);
#640=CARTESIAN_POINT('',(0.0,-2000.0,1372.0));
#641=CARTESIAN_POINT('',(0.0,-998.0,1372.0));
#642=CARTESIAN_POINT('',(-8.81745695386094E-15,-1499.0,1372.0));
#643=VECTOR('',#718,1.0);
#644=CARTESIAN_POINT('',(8.81745695386094E-15,-2000.0,1228.0));
#645=AXIS2_PLACEMENT_3D('',#719,#720,#721);
#646=CARTESIAN_POINT('',(8.81745695386094E-15,-998.0,1228.0));
#647=CARTESIAN_POINT('',(8.81745695386094E-15,-1499.0,1228.0));
#648=VECTOR('',#722,1.0);
#649=AXIS2_PLACEMENT_3D('',#723,#724,#725);
#650=AXIS2_PLACEMENT_3D('',#726,#727,#728);
#651=AXIS2_PLACEMENT_3D('',#729,#730,#731);
#652=AXIS2_PLACEMENT_3D('',#732,#733,#734);
#653=AXIS2_PLACEMENT_3D('',#735,#736,#737);
#654=CARTESIAN_POINT('',(-72.0,-2000.0,1228.0));
#655=CARTESIAN_POINT('',(-72.0,-2000.0,1372.0));
#656=CARTESIAN_POINT('',(-72.0,-2000.0,1228.0));
#657=VECTOR('',#738,1.0);
#658=CARTESIAN_POINT('',(72.0,-2000.0,1372.0));
#659=CARTESIAN_POINT('',(-72.0,-2000.0,1372.0));
#660=VECTOR('',#739,1.0);
#661=CARTESIAN_POINT('',(72.0,-2000.0,1228.0));
#662=CARTESIAN_POINT('',(72.0,-2000.0,1372.0));
#663=VECTOR('',#740,1.0);
#664=CARTESIAN_POINT('',(72.0,-2000.0,1228.0));
#665=VECTOR('',#741,1.0);
#666=DIRECTION('',(0.0,0.0,-1.0));
#667=DIRECTION('',(0.0,-1.0,0.0));
#668=DIRECTION('',(0.0,0.0,-1.0));
#669=DIRECTION('',(0.0,0.0,-1.0));
#670=DIRECTION('',(0.0,1.0,0.0));
#671=DIRECTION('',(0.0,0.0,-1.0));
#672=DIRECTION('',(1.0,0.0,0.0));
#673=DIRECTION('',(0.0,0.0,-1.0));
#674=DIRECTION('',(0.0,0.0,-1.0));
#675=DIRECTION('',(-1.0,0.0,0.0));
#676=DIRECTION('',(0.0,1.0,0.0));
#677=DIRECTION('',(0.0,0.0,-1.0));
#678=DIRECTION('',(0.0,0.0,-1.0));
#679=DIRECTION('',(0.0,-1.0,0.0));
#680=CARTESIAN_POINT('',(0.0,-1000.0,1300.0));
#681=DIRECTION('',(0.0,1.0,0.0));
#682=DIRECTION('',(0.0,0.0,1.0));
#683=CARTESIAN_POINT('',(0.0,-1000.0,1300.0));
#684=DIRECTION('',(0.0,1.0,0.0));
#685=DIRECTION('',(0.0,0.0,1.0));
#686=DIRECTION('',(-1.0,0.0,0.0));
#687=DIRECTION('',(1.0,0.0,0.0));
#688=DIRECTION('',(1.0,0.0,0.0));
#689=DIRECTION('',(0.0,-1.0,0.0));
#690=DIRECTION('',(-1.0,0.0,0.0));
#691=DIRECTION('',(0.0,1.0,0.0));
#692=DIRECTION('',(0.0,1.0,0.0));
#693=DIRECTION('',(-1.0,0.0,0.0));
#694=DIRECTION('',(0.0,-1.0,0.0));
#695=DIRECTION('',(1.0,0.0,0.0));
#696=DIRECTION('',(0.0,1.0,0.0));
#697=CARTESIAN_POINT('',(0.0,-2000.0,1300.0));
#698=DIRECTION('',(0.0,-1.0,0.0));
#699=DIRECTION('',(1.0,0.0,0.0));
#700=DIRECTION('',(-0.0,-1.0,-0.0));
#701=CARTESIAN_POINT('',(0.0,0.0,1300.0));
#702=DIRECTION('',(-0.0,1.0,0.0));
#703=DIRECTION('',(1.0,0.0,0.0));
#704=CARTESIAN_POINT('',(0.0,0.0,1300.0));
#705=DIRECTION('',(-0.0,1.0,0.0));
#706=DIRECTION('',(1.0,0.0,0.0));
#707=CARTESIAN_POINT('',(0.0,-2000.0,1300.0));
#708=DIRECTION('',(0.0,-1.0,0.0));
#709=DIRECTION('',(1.0,0.0,0.0));
#710=DIRECTION('',(0.0,1.0,-0.0));
#711=CARTESIAN_POINT('',(0.0,-2000.0,1300.0));
#712=DIRECTION('',(0.0,1.0,0.0));
#713=DIRECTION('',(0.0,0.0,1.0));
#714=DIRECTION('',(0.0,-1.0,-0.0));
#715=CARTESIAN_POINT('',(0.0,-998.0,1300.0));
#716=DIRECTION('',(0.0,1.0,0.0));
#717=DIRECTION('',(0.0,0.0,1.0));
#718=DIRECTION('',(0.0,1.0,0.0));
#719=CARTESIAN_POINT('',(0.0,-2000.0,1300.0));
#720=DIRECTION('',(0.0,1.0,0.0));
#721=DIRECTION('',(0.0,0.0,1.0));
#722=DIRECTION('',(-0.0,-1.0,-0.0));
#723=CARTESIAN_POINT('',(0.0,-998.0,1300.0));
#724=DIRECTION('',(0.0,1.0,0.0));
#725=DIRECTION('',(0.0,0.0,1.0));
#726=CARTESIAN_POINT('',(0.0,-2000.0,1300.0));
#727=DIRECTION('',(0.0,1.0,0.0));
#728=DIRECTION('',(0.0,0.0,1.0));
#729=CARTESIAN_POINT('',(0.0,-2000.0,1300.0));
#730=DIRECTION('',(0.0,1.0,0.0));
#731=DIRECTION('',(0.0,0.0,1.0));
#732=CARTESIAN_POINT('',(0.0,-998.0,1300.0));
#733=DIRECTION('',(0.0,1.0,0.0));
#734=DIRECTION('',(0.0,0.0,1.0));
#735=CARTESIAN_POINT('',(0.0,-998.0,1300.0));
#736=DIRECTION('',(0.0,1.0,0.0));
#737=DIRECTION('',(0.0,0.0,1.0));
#738=DIRECTION('',(0.0,0.0,1.0));
#739=DIRECTION('',(1.0,0.0,0.0));
#740=DIRECTION('',(0.0,0.0,-1.0));
#741=DIRECTION('',(-1.0,0.0,0.0));
#742=PRESENTATION_LAYER_ASSIGNMENT('Vacuum','Vacuum',(#49));
#743=PRESENTATION_LAYER_ASSIGNMENT('PEC','PEC',(#36,#38,#40,#42));
ENDSEC;
END-ISO-10303-21;
